<svg xmlns="http://www.w3.org/2000/svg" viewBox="0 0 451 606.5">
    <path fill="#212121" d="M35.5 0A35.5 35.5 0 000 35.5V571a35.504 35.504 0 0035.5 35.5H415a35.5 35.5 0 0035.5-35.5 35.5 35.5 0 00-35.5-35.5H71v-500A35.5 35.5 0 0035.5 0z" overflow="visible" />
    <path fill="#212121" d="M146.5 0A35.5 35.5 0 00111 35.5v163a35.504 35.504 0 0053.896 30.361L281 158.508l116.104 70.353a35.5 35.5 0 0048.757-11.965 35.5 35.5 0 00-11.965-48.757L349.502 117l84.394-51.139a35.5 35.5 0 0011.965-48.757 35.5 35.5 0 00-48.757-11.965L262.732 86.56a35.5 35.5 0 00-.043.025l-.085.053a35.5 35.5 0 00-.026.015L182 135.48V35.5A35.5 35.5 0 00146.5 0zm269 268a35.5 35.5 0 00-35.5 35.5v100.234l-215.076-130.58A35.504 35.504 0 00111 303.5v163a35.5 35.5 0 0035.5 35.5 35.5 35.5 0 0035.5-35.5v-99.916l215.076 130.58A35.504 35.504 0 00451 466.818V303.5a35.5 35.5 0 00-35.5-35.5z" overflow="visible" />
</svg>
